Coordinates
version=1
nRows=17
nColumns=38
inDegrees=no

Units are S.I. units (second, meters, Newtons, ...)
If the header above contains a line with 'inDegrees', this indicates whether rotational values are in degrees (yes) or radians (no).

endheader
time	pelvis_tilt	pelvis_list	pelvis_rotation	pelvis_tx	pelvis_ty	pelvis_tz	hip_flexion_r	hip_adduction_r	hip_rotation_r	knee_angle_r	ankle_angle_r	subtalar_angle_r	mtp_angle_r	hip_flexion_l	hip_adduction_l	hip_rotation_l	knee_angle_l	ankle_angle_l	subtalar_angle_l	mtp_angle_l	lumbar_extension	lumbar_bending	lumbar_rotation	arm_flex_r	arm_add_r	arm_rot_r	elbow_flex_r	pro_sup_r	wrist_flex_r	wrist_dev_r	arm_flex_l	arm_add_l	arm_rot_l	elbow_flex_l	pro_sup_l	wrist_flex_l	wrist_dev_l
13.55	-2.84393	1.09551	-2.50116	0.817253	-0.943482	0.967054	-0.523599	-0.441892	-0.521099	0.167481	0.132853	0	0	-0.119182	0.247153	-0.698132	0.129684	-0.128093	0	0	-0.530803	-0.474381	0.396907	0.804935	-0.269413	0.466725	1.42023	1.2599	0	0	0.482295	-0.274237	-0.136625	1.89498	0	0	0
13.56	-2.9521	1.09008	-2.43299	0.822596	-0.957954	0.973659	-0.523599	-0.418103	-0.504754	0.176721	0.11154	0	0	-0.16642	0.201733	-0.668994	0.155595	-0.231782	0	0	-0.581714	-0.473073	0.425648	0.829964	-0.271931	0.467028	1.43372	1.23641	0	0	0.494255	-0.277401	-0.133301	1.9045	0	0	0
13.57	-2.83184	1.06617	-2.51813	0.818423	-0.951637	0.971687	-0.523599	-0.482771	-0.559992	0.208216	0.137567	0	0	-0.135979	0.264508	-0.659054	0.16926	-0.249148	0	0	-0.553665	-0.506801	0.387862	0.790407	-0.276841	0.457738	1.44364	1.21226	0	0	0.474949	-0.278753	-0.134747	1.90791	0	0	0
13.58	-2.95915	1.08636	-2.42852	0.822599	-0.963556	0.974601	-0.523599	-0.414688	-0.492442	0.175083	0.11169	0	0	-0.17175	0.201896	-0.671968	0.182765	-0.24058	0	0	-0.584045	-0.473499	0.428681	0.812728	-0.2828	0.462207	1.45937	1.18987	0	0	0.476019	-0.280388	-0.134368	1.9196	0	0	0
13.59	-2.87117	1.09889	-2.47763	0.816869	-0.954653	0.968483	-0.523599	-0.419925	-0.484148	0.151941	0.125089	0	0	-0.13734	0.237943	-0.697197	0.175194	-0.131909	0	0	-0.531054	-0.46129	0.406894	0.769709	-0.292312	0.458829	1.47415	1.16661	0	0	0.441838	-0.277942	-0.139641	1.92729	0	0	0
13.6	-2.85603	1.07523	-2.50172	0.818623	-0.960508	0.971212	-0.523599	-0.447047	-0.499782	0.159615	0.119278	0	0	-0.145308	0.250354	-0.662821	0.203726	-0.237404	0	0	-0.54933	-0.494083	0.40051	0.767493	-0.292479	0.451585	1.48648	1.14543	0	0	0.442338	-0.284611	-0.139774	1.93879	0	0	0
13.61	-2.92235	1.07145	-2.46771	0.822399	-0.964188	0.974957	-0.523599	-0.446637	-0.533129	0.175654	0.112003	0	0	-0.177258	0.237179	-0.677722	0.204535	-0.251793	0	0	-0.564802	-0.490075	0.431077	0.764185	-0.297019	0.449222	1.50204	1.12458	0	0	0.424192	-0.282828	-0.145385	1.94838	0	0	0
13.62	-2.98755	1.11302	-2.38657	0.8208	-0.969172	0.971795	-0.523599	-0.365833	-0.445574	0.149238	0.115389	0	0	-0.170312	0.18392	-0.698132	0.203579	-0.131598	0	0	-0.560254	-0.431525	0.435128	0.765424	-0.30728	0.453705	1.51658	1.10357	0	0	0.418468	-0.282378	-0.147595	1.96515	0	0	0
13.63	-2.87469	1.08082	-2.48431	0.818704	-0.967689	0.971275	-0.523599	-0.428339	-0.485448	0.149235	0.130709	0	0	-0.157368	0.243114	-0.660495	0.219199	-0.236127	0	0	-0.549621	-0.483721	0.402957	0.743124	-0.306112	0.443125	1.52737	1.08347	0	0	0.405778	-0.288641	-0.150048	1.97613	0	0	0
13.64	-2.89262	1.10787	-2.454	0.816934	-0.965342	0.968535	-0.523599	-0.401581	-0.486991	0.152914	0.144834	0	0	-0.154696	0.228994	-0.697434	0.202082	-0.130239	0	0	-0.526818	-0.445627	0.407881	0.72446	-0.313935	0.441842	1.54302	1.06303	0	0	0.378946	-0.28486	-0.155216	1.98867	0	0	0
13.65	-2.91443	1.09459	-2.45768	0.82067	-0.970306	0.970687	-0.523599	-0.413864	-0.503086	0.153919	0.136569	0	0	-0.170718	0.233813	-0.696476	0.207768	-0.14082	0	0	-0.540695	-0.464952	0.424087	0.725016	-0.313765	0.435506	1.55725	1.04441	0	0	0.371528	-0.289711	-0.155825	2.00353	0	0	0
13.66	-2.88662	1.04665	-2.5139	0.827301	-0.973178	0.974049	-0.523599	-0.487038	-0.545731	0.209332	0.140652	0	0	-0.180514	0.261772	-0.694486	0.262616	-0.256051	0	0	-0.549161	-0.533983	0.434691	0.694297	-0.305998	0.416132	1.56368	1.02612	0	0	0.368832	-0.29965	-0.15571	2.01612	0	0	0
13.67	-2.96394	1.11193	-2.38551	0.817291	-0.97495	0.971154	-0.523599	-0.381388	-0.54826	0.1763	0.148342	0	0	-0.185432	0.203823	-0.695746	0.206591	-0.136839	0	0	-0.555706	-0.424515	0.407287	0.714636	-0.324751	0.429194	1.58486	1.00734	0	0	0.351011	-0.28383	-0.162997	2.02625	0	0	0
13.68	-2.86815	1.05838	-2.49857	0.822104	-0.97731	0.973649	-0.523599	-0.460762	-0.536572	0.19067	0.142552	0	0	-0.175673	0.261289	-0.666374	0.249094	-0.268394	0	0	-0.557506	-0.515242	0.397464	0.687538	-0.313359	0.410165	1.59074	0.990364	0	0	0.351371	-0.297347	-0.164295	2.04181	0	0	0
13.69	-2.88458	1.06571	-2.48489	0.822367	-0.978987	0.973363	-0.523599	-0.446472	-0.527226	0.179983	0.141081	0	0	-0.186878	0.255023	-0.670796	0.240167	-0.26474	0	0	-0.557088	-0.505223	0.401853	0.683348	-0.316633	0.40635	1.60517	0.973419	0	0	0.337746	-0.295707	-0.167752	2.05692	0	0	0
13.7	-2.92197	1.10073	-2.44064	0.820442	-0.977686	0.970731	-0.523599	-0.394942	-0.48454	0.148924	0.138821	0	0	-0.189272	0.232632	-0.698132	0.209752	-0.149245	0	0	-0.536951	-0.454835	0.414678	0.67261	-0.325424	0.409506	1.62081	0.956672	0	0	0.308952	-0.29656	-0.123079	1.78587	0.0861823	0	0
13.71	-2.90635	1.07157	-2.47089	0.82271	-0.983596	0.973816	-0.523599	-0.420777	-0.47544	0.145402	0.124499	0	0	-0.196861	0.245845	-0.679878	0.240492	-0.265298	0	0	-0.559853	-0.496542	0.410675	0.668097	-0.323354	0.397684	1.63315	0.941938	0	0	0.314581	-0.30011	-0.119698	1.79123	0.150854	0	0
